<svg height="512pt" viewBox="0 -72 512 512" width="512pt" xmlns="http://www.w3.org/2000/svg"><path d="m176 296c8.878906 0 16 7.203125 16 16 0 8.882812-7.121094 16-16 16-8.800781 0-16-7.117188-16-16 0-8.796875 7.199219-16 16-16zm0 0" fill="#d7e9ff"/><path d="m176 264c26.558594 0 48 21.523438 48 48 0 26.480469-21.441406 48-48 48-26.480469 0-48-21.519531-48-48 0-26.476562 21.519531-48 48-48zm16 48c0-8.796875-7.121094-16-16-16-8.800781 0-16 7.203125-16 16 0 8.882812 7.199219 16 16 16 8.878906 0 16-7.117188 16-16zm0 0" fill="#5c9eff"/><path d="m416 296c8.878906 0 16 7.203125 16 16 0 8.882812-7.121094 16-16 16-8.800781 0-16-7.117188-16-16 0-8.796875 7.199219-16 16-16zm0 0" fill="#d7e9ff"/><path d="m416 264c26.558594 0 48 21.523438 48 48 0 26.480469-21.441406 48-48 48-26.480469 0-48-21.519531-48-48 0-26.476562 21.519531-48 48-48zm16 48c0-8.796875-7.121094-16-16-16-8.800781 0-16 7.203125-16 16 0 8.882812 7.199219 16 16 16 8.878906 0 16-7.117188 16-16zm0 0" fill="#5c9eff"/><path d="m384 128 8 64h-32l-8-64zm0 0" fill="#d7e9ff"/><path d="m424.640625 128 39.359375 64h-72l-8-64zm0 0" fill="#d7e9ff"/><path d="m319.601562 104h120.398438l64 104v104h-40c0-26.476562-21.441406-48-48-48-26.480469 0-48 21.523438-48 48h-144c0-26.476562-21.441406-48-48-48-26.480469 0-48 21.523438-48 48h-40l-6.320312-80h248zm32.398438 24 8 64h104l-39.359375-64zm0 0" fill="#d7e9ff"/><path d="m78.558594 192-3.839844-48-3.757812-48-3.832032-48-3.128906-40h248l7.601562 96 10.078126 128h-248zm0 0" fill="#94c1ff"/><g fill="#5897fb"><path d="m504 272c-4.425781 0-8-3.574219-8-8v-56c0-4.421875 3.574219-8 8-8s8 3.578125 8 8v56c0 4.425781-3.574219 8-8 8zm0 0"/><path d="m504.007812 216c-2.6875 0-5.3125-1.351562-6.824218-3.804688l-64-104c-2.3125-3.769531-1.144532-8.699218 2.617187-11.007812 3.765625-2.320312 8.695313-1.144531 11.007813 2.613281l64 104c2.3125 3.769531 1.144531 8.695313-2.617188 11.007813-1.3125.808594-2.75 1.191406-4.183594 1.191406zm0 0"/><path d="m464.007812 200c-2.6875 0-5.3125-1.351562-6.824218-3.804688l-39.390625-64.015624c-2.320313-3.769532-1.144531-8.699219 2.613281-11.011719 3.777344-2.316407 8.699219-1.140625 11.007812 2.617187l39.394532 64.015625c2.320312 3.769531 1.144531 8.695313-2.617188 11.007813-1.3125.808594-2.75 1.191406-4.183594 1.191406zm0 0"/><path d="m440 112h-120.425781c-4.421875 0-8-3.574219-8-8 0-4.421875 3.578125-8 8-8h120.425781c4.425781 0 8 3.578125 8 8 0 4.425781-3.574219 8-8 8zm0 0"/><path d="m329.679688 240.019531-247.992188-.019531c-4.421875 0-8-3.582031-8-8 0-4.421875 3.585938-8 8-8l247.992188.019531c4.425781 0 8 3.582031 8 8 0 4.421875-3.582032 8-8 8zm0 0"/><path d="m87.992188 320c-4.136719 0-7.632813-3.175781-7.96875-7.367188l-24-304c-.34375-4.40625 2.945312-8.253906 7.34375-8.6054682 4.519531-.3554688 8.257812 2.9414062 8.609374 7.3437502l24 304c.34375 4.40625-2.945312 8.253906-7.34375 8.605468-.21875.015626-.433593.023438-.640624.023438zm0 0"/><path d="m329.671875 240.019531c-4.136719 0-7.632813-3.179687-7.96875-7.371093l-17.679687-224.015626c-.34375-4.40625 2.945312-8.253906 7.34375-8.6054682 4.511718-.3554688 8.257812 2.9414062 8.609374 7.3437502l17.679688 224.015625c.34375 4.40625-2.945312 8.253906-7.34375 8.605469-.214844.019531-.433594.027343-.640625.027343zm0 0"/><path d="m310.265625 16h-246.265625c-4.425781 0-8-3.574219-8-8 0-4.421875 3.574219-8 8-8h246.265625c4.421875 0 8 3.578125 8 8 0 4.425781-3.578125 8-8 8zm0 0"/><path d="m360 320h-128c-4.425781 0-8-3.574219-8-8 0-4.421875 3.574219-8 8-8h128c4.425781 0 8 3.578125 8 8 0 4.425781-3.574219 8-8 8zm0 0"/><path d="m504 320c-4.425781 0-8-3.574219-8-8v-48c0-4.421875 3.574219-8 8-8s8 3.578125 8 8v48c0 4.425781-3.574219 8-8 8zm0 0"/><path d="m416 336c-13.230469 0-24-10.765625-24-24 0-13.230469 10.769531-24 24-24s24 10.769531 24 24c0 13.234375-10.769531 24-24 24zm0-32c-4.414062 0-8 3.585938-8 8 0 4.417969 3.585938 8 8 8s8-3.582031 8-8c0-4.414062-3.585938-8-8-8zm0 0"/><path d="m416 368c-30.871094 0-56-25.125-56-56 0-30.871094 25.128906-56 56-56s56 25.128906 56 56c0 30.875-25.128906 56-56 56zm0-96c-22.054688 0-40 17.945312-40 40 0 22.058594 17.945312 40 40 40s40-17.941406 40-40c0-22.054688-17.945312-40-40-40zm0 0"/><path d="m176 336c-13.230469 0-24-10.765625-24-24 0-13.230469 10.769531-24 24-24s24 10.769531 24 24c0 13.234375-10.769531 24-24 24zm0-32c-4.414062 0-8 3.585938-8 8 0 4.417969 3.585938 8 8 8s8-3.582031 8-8c0-4.414062-3.585938-8-8-8zm0 0"/><path d="m176 368c-30.871094 0-56-25.125-56-56 0-30.871094 25.128906-56 56-56s56 25.128906 56 56c0 30.875-25.128906 56-56 56zm0-96c-22.054688 0-40 17.945312-40 40 0 22.058594 17.945312 40 40 40s40-17.941406 40-40c0-22.054688-17.945312-40-40-40zm0 0"/><path d="m120 320h-32c-4.425781 0-8-3.574219-8-8 0-4.421875 3.574219-8 8-8h32c4.425781 0 8 3.578125 8 8 0 4.425781-3.574219 8-8 8zm0 0"/><path d="m504 320h-32c-4.425781 0-8-3.574219-8-8 0-4.421875 3.574219-8 8-8h32c4.425781 0 8 3.578125 8 8 0 4.425781-3.574219 8-8 8zm0 0"/><path d="m359.992188 200c-3.976563 0-7.425782-2.957031-7.929688-7.007812l-8-64c-.542969-4.382813 2.5625-8.382813 6.945312-8.925782 4.425782-.511718 8.382813 2.558594 8.929688 6.945313l8 64c.542969 4.382812-2.5625 8.382812-6.945312 8.925781-.335938.039062-.671876.0625-1 .0625zm0 0"/><path d="m464 200h-104c-4.425781 0-8-3.574219-8-8 0-4.421875 3.574219-8 8-8h104c4.425781 0 8 3.578125 8 8 0 4.425781-3.574219 8-8 8zm0 0"/><path d="m424.609375 136h-72.609375c-4.425781 0-8-3.574219-8-8 0-4.421875 3.574219-8 8-8h72.609375c4.421875 0 8 3.578125 8 8 0 4.425781-3.578125 8-8 8zm0 0"/><path d="m391.992188 200c-3.976563 0-7.425782-2.957031-7.929688-7.007812l-8-64.015626c-.542969-4.382812 2.5625-8.382812 6.945312-8.925781 4.398438-.503906 8.382813 2.558594 8.929688 6.941407l8 64.019531c.542969 4.382812-2.5625 8.382812-6.945312 8.925781-.335938.039062-.671876.0625-1 .0625zm0 0"/><path d="m368 232h-8c-4.425781 0-8-3.574219-8-8 0-4.421875 3.574219-8 8-8h8c4.425781 0 8 3.578125 8 8 0 4.425781-3.574219 8-8 8zm0 0"/><path d="m128 104h-120c-4.425781 0-8-3.574219-8-8 0-4.421875 3.574219-8 8-8h120c4.425781 0 8 3.578125 8 8 0 4.425781-3.574219 8-8 8zm0 0"/><path d="m78.558594 200h-38.558594c-4.425781 0-8-3.574219-8-8 0-4.421875 3.574219-8 8-8h38.558594c4.425781 0 8 3.578125 8 8 0 4.425781-3.574219 8-8 8zm0 0"/><path d="m176 104h-16c-4.425781 0-8-3.574219-8-8 0-4.421875 3.574219-8 8-8h16c4.425781 0 8 3.578125 8 8 0 4.425781-3.574219 8-8 8zm0 0"/><path d="m32 152h-16c-4.425781 0-8-3.574219-8-8 0-4.421875 3.574219-8 8-8h16c4.425781 0 8 3.578125 8 8 0 4.425781-3.574219 8-8 8zm0 0"/><path d="m144 152h-88c-4.425781 0-8-3.574219-8-8 0-4.421875 3.574219-8 8-8h88c4.425781 0 8 3.578125 8 8 0 4.425781-3.574219 8-8 8zm0 0"/><path d="m112 56h-72c-4.425781 0-8-3.574219-8-8 0-4.421875 3.574219-8 8-8h72c4.425781 0 8 3.578125 8 8 0 4.425781-3.574219 8-8 8zm0 0"/></g></svg>