<svg id="endegrakzi61" xmlns="http://www.w3.org/2000/svg" xmlns:xlink="http://www.w3.org/1999/xlink" viewBox="0 0 82 82" shape-rendering="geometricPrecision" text-rendering="geometricPrecision"><style><![CDATA[#endegrakzi63_to {animation: endegrakzi63_to__to 7000ms linear infinite normal forwards}@keyframes endegrakzi63_to__to { 0% {transform: translate(40.917101px,46px);animation-timing-function: cubic-bezier(0.250000,1,0.250000,1)} 10% {transform: translate(40.917101px,41px)} 100% {transform: translate(40.917101px,41px)} }#endegrakzi63_tr {animation: endegrakzi63_tr__tr 7000ms linear infinite normal forwards}@keyframes endegrakzi63_tr__tr { 0% {transform: rotate(-360deg);animation-timing-function: cubic-bezier(0.470000,0,0.745000,0.715000)} 100% {transform: rotate(45deg)} }#endegrakzi63_ts {animation: endegrakzi63_ts__ts 7000ms linear infinite normal forwards}@keyframes endegrakzi63_ts__ts { 0% {transform: scale(0,0);animation-timing-function: cubic-bezier(0.600000,0.040000,0.980000,0.335000)} 7.142857% {transform: scale(1,1)} 100% {transform: scale(1,1)} }]]></style><defs><linearGradient id="endegrakzi62-fill" x1="-41" y1="9.517900" x2="41.051900" y2="9.047500" spreadMethod="pad" gradientUnits="userSpaceOnUse"><stop id="endegrakzi62-fill-0" offset="0%" stop-color="#5897fb"/><stop id="endegrakzi62-fill-1" offset="100%" stop-color="#5897fb"/></linearGradient></defs><circle id="endegrakzi62" r="41" transform="matrix(1 0 0 1 41 41)" fill="url(#endegrakzi62-fill)" stroke="none" stroke-width="1"/><g id="endegrakzi63_to" transform="translate(40.917101,46)"><g id="endegrakzi63_tr" transform="rotate(-360)"><g id="endegrakzi63_ts" transform="scale(0,0)"><g id="endegrakzi63" transform="translate(-40.917101,-41)"><path id="endegrakzi64" d="M22.866700,43.337900L18.825100,46.851500C17.958700,47.605100,17.747500,48.867500,18.321100,49.863500L21.942700,56.137100C22.516300,57.133100,23.716300,57.579500,24.803500,57.207500L29.867500,55.465100L22.866700,43.337900Z" fill="rgb(255,255,255)" stroke="none" stroke-width="1"/><path id="endegrakzi65" d="M51.966700,55.462200L57.030700,57.204600C58.117900,57.579000,59.315500,57.130200,59.891500,56.134200L63.513100,49.860600C64.086700,48.864600,63.875500,47.602200,63.009100,46.848600L58.967500,43.335000L51.966700,55.462200Z" fill="rgb(255,255,255)" stroke="none" stroke-width="1"/><path id="endegrakzi66" d="M29.867500,26.537700L24.803500,24.795300C23.716300,24.420900,22.518700,24.869700,21.942700,25.863300L18.321100,32.136900C17.747500,33.132900,17.958700,34.395300,18.825100,35.148900L22.866700,38.662500L29.867500,26.537700Z" fill="rgb(255,255,255)" stroke="none" stroke-width="1"/><path id="endegrakzi67" d="M33.916300,57.800000L34.938700,63.058400C35.159500,64.186400,36.145900,65,37.295500,65L44.538700,65C45.688300,65,46.674700,64.186400,46.895500,63.058400L47.917900,57.800000L33.916300,57.800000Z" fill="rgb(255,255,255)" stroke="none" stroke-width="1"/><path id="endegrakzi68" d="M40.917000,21.799800C30.313800,21.799800,21.717000,30.396600,21.717000,40.999800C21.717000,51.603000,30.313800,60.199800,40.917000,60.199800C51.520200,60.199800,60.117000,51.603000,60.117000,40.999800C60.117000,30.396600,51.520200,21.799800,40.917000,21.799800ZM40.917000,50.599800C35.615400,50.599800,31.317000,46.301400,31.317000,40.999800C31.317000,35.698200,35.615400,31.399800,40.917000,31.399800C46.218600,31.399800,50.517000,35.698200,50.517000,40.999800C50.517000,46.301400,46.218600,50.599800,40.917000,50.599800Z" transform="matrix(1 0 0 1 0.00010000000000 0.00020000000000)" fill="rgb(255,255,255)" stroke="none" stroke-width="1"/><path id="endegrakzi69" d="M47.917900,24.200000L46.895500,18.941600C46.674700,17.813600,45.688300,17,44.538700,17L37.295500,17C36.145900,17,35.159500,17.813600,34.938700,18.941600L33.916300,24.200000L47.917900,24.200000Z" fill="rgb(255,255,255)" stroke="none" stroke-width="1"/><path id="endegrakzi610" d="M58.967500,38.662600L63.009100,35.149000C63.875500,34.395400,64.086700,33.133000,63.513100,32.137000L59.891500,25.863400C59.317900,24.867400,58.117900,24.421000,57.030700,24.793000L51.966700,26.535400L58.967500,38.662600Z" fill="rgb(255,255,255)" stroke="none" stroke-width="1"/></g></g></g></g></svg>