<svg id="em1gzfb5kt581" xmlns="http://www.w3.org/2000/svg" xmlns:xlink="http://www.w3.org/1999/xlink" viewBox="0 0 82 82" shape-rendering="geometricPrecision" text-rendering="geometricPrecision"><style><![CDATA[#em1gzfb5kt583_to {animation: em1gzfb5kt583_to__to 2400ms linear infinite normal forwards}@keyframes em1gzfb5kt583_to__to { 0% {transform: translate(0px,0px);animation-timing-function: cubic-bezier(0.470000,0,0.745000,0.715000)} 25% {transform: translate(0px,5px);animation-timing-function: cubic-bezier(0.470000,0,0.745000,0.715000)} 50% {transform: translate(0px,0px);animation-timing-function: cubic-bezier(0.470000,0,0.745000,0.715000)} 75% {transform: translate(0px,5px);animation-timing-function: cubic-bezier(0.470000,0,0.745000,0.715000)} 100% {transform: translate(0px,0px)} }#em1gzfb5kt585_to {animation: em1gzfb5kt585_to__to 2400ms linear infinite normal forwards}@keyframes em1gzfb5kt585_to__to { 0% {transform: translate(41.200000px,59px);animation-timing-function: cubic-bezier(0.470000,0,0.745000,0.715000)} 25% {transform: translate(41.200000px,54px);animation-timing-function: cubic-bezier(0.470000,0,0.745000,0.715000)} 50% {transform: translate(41.200000px,59px);animation-timing-function: cubic-bezier(0.470000,0,0.745000,0.715000)} 75% {transform: translate(41.200000px,54px);animation-timing-function: cubic-bezier(0.470000,0,0.745000,0.715000)} 100% {transform: translate(41.200000px,59px)} }]]></style><defs><linearGradient id="em1gzfb5kt582-fill" x1="-41" y1="9.517900" x2="41.051900" y2="9.047500" spreadMethod="pad" gradientUnits="userSpaceOnUse"><stop id="em1gzfb5kt582-fill-0" offset="0%" stop-color="#5897fb"/><stop id="em1gzfb5kt582-fill-1" offset="100%" stop-color="#5897fb"/></linearGradient></defs><circle id="em1gzfb5kt582" r="41" transform="matrix(1 0 0 1 41 41)" fill="url(#em1gzfb5kt582-fill)" stroke="none" stroke-width="1"/><g id="em1gzfb5kt583_to" transform="translate(0,0)"><path id="em1gzfb5kt583" d="M60.400000,26.600000L60.400000,21.800000C60.400000,19.148000,58.252000,17,55.600000,17L26.800000,17C24.148000,17,22,19.148000,22,21.800000L22,26.600000C22,27.924800,23.075200,29,24.400000,29L58,29C59.324800,29,60.400000,27.924800,60.400000,26.600000Z" transform="translate(0,0)" fill="rgb(255,255,255)" stroke="none" stroke-width="1"/></g><path id="em1gzfb5kt584" d="M60.400000,45.799800L60.400000,36.199800C60.400000,34.875000,59.324800,33.799800,58,33.799800L24.400000,33.799800C23.075200,33.799800,22,34.875000,22,36.199800L22,45.799800C22,47.124600,23.075200,48.199800,24.400000,48.199800L58,48.199800C59.324800,48.199800,60.400000,47.124600,60.400000,45.799800Z" fill="rgb(255,255,255)" stroke="none" stroke-width="1"/><g id="em1gzfb5kt585_to" transform="translate(41.200000,59)"><path id="em1gzfb5kt585" d="M22,55.400000L22,60.200000C22,62.852000,24.148000,65,26.800000,65L55.600000,65C58.252000,65,60.400000,62.852000,60.400000,60.200000L60.400000,55.400000C60.400000,54.075200,59.324800,53,58,53L24.400000,53C23.075200,53,22,54.075200,22,55.400000Z" transform="translate(-41.200000,-59)" fill="rgb(255,255,255)" stroke="none" stroke-width="1"/></g></svg>