<svg height="511pt" viewBox="-87 0 511 511.992" width="511pt" xmlns="http://www.w3.org/2000/svg"><path d="m288.496094 456v24h-48v-24zm0 0" fill="#fff"/><path d="m240.496094 480h48v-24h-48zm-135.921875-104v24c0 35.359375 28.640625 64 63.921875 64 35.359375 0 64-28.640625 64-64v-24h48c26.558594 0 48 21.441406 48 48v72c0 4.398438-3.511719 8-8 8h-304c-4.398438 0-8-3.601562-8-8v-72c0-26.558594 21.519531-48 48.078125-48zm0 0" fill="#94c1ff"/><path d="m120.496094 376v-42c14.71875 6.398438 30.960937 10 48 10 17.128906 0 33.359375-3.601562 48-10v42h16v24c0 35.359375-28.640625 64-64 64-35.28125 0-63.921875-28.640625-63.921875-64v-24zm0 0" fill="#d7e9ff"/><path d="m280.496094 376h-32.03125c26.558594 0 48 21.441406 48 48v72c0 4.398438-3.511719 8-8 8h32.03125c4.488281 0 8-3.601562 8-8v-72c0-26.558594-21.441406-48-48-48zm0 0" fill="#5c9eff"/><path d="m168.496094 8c13.28125 0 24 10.71875 24 24v2c-7.761719-1.28125-15.832032-2-24-2-8.160156 0-16.230469.71875-24 2.078125v-2.078125c0-13.28125 10.808594-24 24-24zm0 0" fill="#5c9eff"/><path d="m288.496094 128c0 17.679688-14.320313 32-32 32v-98c17.679687 0 32 14.320312 32 32zm0 0" fill="#5c9eff"/><path d="m256.496094 62v98h-176c-13.191406 0-24 10.71875-24 24v16c0 7.121094-3.121094 13.601562-8.082032 17.839844-4.238281 3.839844-9.75 6.160156-15.917968 6.160156h-8v-48c0-71.359375 51.917968-130.558594 120-141.921875 7.769531-1.359375 15.839844-2.078125 24-2.078125 8.167968 0 16.238281.71875 24 2 23.839844 4 45.679687 13.839844 64 28zm0 0" fill="#94c1ff"/><path d="m288.496094 160v64c0 27.039062-8.960938 52-24 72-12.398438 16.480469-28.871094 29.679688-48 38-14.640625 6.398438-30.871094 10-48 10-17.039063 0-33.28125-3.601562-48-10-42.398438-18.558594-72-60.800781-72-110v-6.078125l-.082032-.082031c4.960938-4.238282 8.082032-10.71875 8.082032-17.839844v-16c0-13.28125 10.808594-24 24-24h176c17.679687 0 32-14.320312 32-32zm0 0" fill="#d7e9ff"/><path d="m256.496094 160h-.03125v64c0 27.039062-8.960938 52-24 72-12.402344 16.480469-28.871094 29.679688-48 38-9.976563 4.359375-20.730469 7.296875-31.960938 8.808594 5.25.695312 10.558594 1.191406 15.992188 1.191406 17.128906 0 33.359375-3.601562 48-10 19.128906-8.320312 35.601562-21.519531 48-38 15.039062-20 24-44.960938 24-72v-96c0 17.679688-14.320313 32-32 32zm0 0" fill="#94c1ff"/><g fill="#5897fb"><path d="m8.496094 432.015625c-4.425782 0-8-3.574219-8-8 0-30.886719 25.128906-56.015625 56.015625-56.015625 4.425781 0 8 3.574219 8 8s-3.574219 8-8 8c-22.0625 0-40.015625 17.953125-40.015625 40.015625 0 4.425781-3.574219 8-8 8zm0 0"/><path d="m328.496094 432.007812c-4.425782 0-8-3.574218-8-8 0-22.054687-17.945313-40-40-40-4.425782 0-8-3.574218-8-8 0-4.421874 3.574218-8 8-8 30.871094 0 56 25.128907 56 56 0 4.425782-3.574219 8-8 8zm0 0"/><path d="m120.496094 384.007812-63.984375-.007812c-4.421875 0-8-3.585938-8-8 0-4.425781 3.585937-8 8-8l63.984375.007812c4.425781 0 8 3.585938 8 8 0 4.425782-3.585938 8-8 8zm0 0"/><path d="m280.496094 384.007812-64-.007812c-4.425782 0-8-3.585938-8-8 0-4.425781 3.582031-8 8-8l64 .007812c4.425781 0 8 3.585938 8 8 0 4.425782-3.585938 8-8 8zm0 0"/><path d="m8.503906 503.992188c-4.414062 0-8-3.578126-8-8l-.007812-71.976563c0-4.414063 3.574218-8 8-8 4.414062 0 8 3.578125 8 8l.007812 71.976563c0 4.414062-3.574218 8-8 8zm0 0"/><path d="m16.503906 511.992188c-8.824218 0-16-7.175782-16-16 0-4.425782 3.574219-8 8-8 4.425782 0 8 3.574218 8 8v.015624c4.425782 0 8 3.566407 8 7.992188 0 4.414062-3.574218 7.992188-8 7.992188zm0 0"/><path d="m320.496094 511.992188c-4.425782 0-8-3.578126-8-8 0-4.425782 3.574218-8 8-8h.015625c0-4.425782 3.566406-8 7.992187-8 4.417969 0 7.992188 3.574218 7.992188 8 0 8.824218-7.175782 16-16 16zm0 0"/><path d="m328.496094 503.992188c-4.425782 0-8-3.578126-8-8v-71.984376c0-4.421874 3.574218-8 8-8 4.425781 0 8 3.578126 8 8v71.984376c0 4.421874-3.574219 8-8 8zm0 0"/><path d="m320.496094 511.992188h-303.992188c-4.425781 0-8-3.578126-8-8 0-4.425782 3.574219-8 8-8h303.992188c4.425781 0 8 3.574218 8 8 0 4.421874-3.574219 8-8 8zm0 0"/><path d="m120.496094 384.007812c-4.425782 0-8-3.574218-8-8v-42c0-4.421874 3.574218-8 8-8 4.425781 0 8 3.578126 8 8v42c0 4.425782-3.574219 8-8 8zm0 0"/><path d="m216.496094 384c-4.425782 0-8-3.574219-8-8v-41.992188c0-4.421874 3.574218-8 8-8 4.425781 0 8 3.578126 8 8v41.992188c0 4.425781-3.574219 8-8 8zm0 0"/><path d="m168.496094 352c-70.574219 0-128-57.425781-128-128 0-4.414062 3.574218-8 8-8 4.425781 0 8 3.585938 8 8 0 61.753906 50.238281 112 112 112 61.761718 0 112-50.238281 112-112 0-4.414062 3.574218-8 8-8 4.425781 0 8 3.585938 8 8 0 70.574219-57.425782 128-128 128zm0 0"/><path d="m288.496094 232c-4.425782 0-8-3.585938-8-8v-64c0-4.414062 3.574218-8 8-8 4.425781 0 8 3.585938 8 8v64c0 4.425781-3.574219 8-8 8zm0 0"/><path d="m24.496094 184c-4.425782 0-8-3.585938-8-8 0-83.816406 68.183594-152 152-152 33.960937 0 66.089844 10.953125 92.878906 31.671875 3.503906 2.695313 4.144531 7.726563 1.441406 11.222656-2.710937 3.496094-7.726562 4.152344-11.214844 1.433594-23.976562-18.535156-52.714843-28.328125-83.105468-28.328125-74.992188 0-136 61.007812-136 136 0 4.414062-3.574219 8-8 8zm0 0"/><path d="m32.496094 232c-4.425782 0-8-3.585938-8-8s3.574218-8 8-8c8.824218 0 16-7.175781 16-16 0-4.414062 3.574218-8 8-8 4.425781 0 8 3.585938 8 8 0 17.648438-14.351563 32-32 32zm0 0"/><path d="m24.496094 232c-4.425782 0-8-3.585938-8-8v-48c0-4.414062 3.574218-8 8-8 4.425781 0 8 3.585938 8 8v48c0 4.425781-3.574219 8-8 8zm0 0"/><path d="m32.496094 232h-8c-4.425782 0-8-3.585938-8-8s3.574218-8 8-8h8c4.425781 0 8 3.585938 8 8s-3.574219 8-8 8zm0 0"/><path d="m56.496094 208c-4.425782 0-8-3.585938-8-8v-16c0-4.414062 3.574218-8 8-8 4.425781 0 8 3.585938 8 8v16c0 4.425781-3.574219 8-8 8zm0 0"/><path d="m56.496094 192c-4.425782 0-8-3.585938-8-8 0-17.648438 14.351562-32 32-32 4.425781 0 8 3.585938 8 8s-3.574219 8-8 8c-8.824219 0-16 7.175781-16 16 0 4.414062-3.574219 8-8 8zm0 0"/><path d="m256.496094 168h-176c-4.425782 0-8-3.585938-8-8s3.574218-8 8-8h176c4.425781 0 8 3.585938 8 8s-3.574219 8-8 8zm0 0"/><path d="m256.496094 168c-4.425782 0-8-3.585938-8-8v-97.992188c0-4.414062 3.574218-8 8-8 4.425781 0 8 3.585938 8 8v97.992188c0 4.414062-3.574219 8-8 8zm0 0"/><path d="m288.496094 102.015625c-4.425782 0-8-3.582031-8-8 0-13.238281-10.777344-24.007813-24.007813-24.007813-4.425781 0-8-3.582031-8-8 0-4.414062 3.574219-8 8-8 22.0625 0 40.007813 17.953126 40.007813 40.007813 0 4.425781-3.574219 8-8 8zm0 0"/><path d="m256.488281 168c-4.425781 0-8-3.585938-8-8s3.574219-8 8-8c13.230469 0 24.007813-10.777344 24.007813-24.007812 0-4.417969 3.574218-8 8-8 4.425781 0 8 3.582031 8 8 0 22.054687-17.945313 40.007812-40.007813 40.007812zm0 0"/><path d="m288.496094 168c-4.425782 0-8-3.585938-8-8v-65.976562c0-4.414063 3.574218-8 8-8 4.425781 0 8 3.585937 8 8v65.976562c0 4.414062-3.574219 8-8 8zm0 0"/><path d="m48.496094 232c-4.425782 0-8-3.585938-8-8v-6.113281c0-4.414063 3.574218-8 8-8 4.425781 0 8 3.585937 8 8v6.113281c0 4.425781-3.574219 8-8 8zm0 0"/><path d="m192.496094 40c-4.425782 0-8-3.585938-8-8 0-8.824219-7.175782-16-16-16-8.824219 0-16 7.175781-16 16 0 4.414062-3.574219 8-8 8-4.425782 0-8-3.585938-8-8 0-17.648438 14.351562-32 32-32 17.648437 0 32 14.351562 32 32 0 4.414062-3.574219 8-8 8zm0 0"/><path d="m144.496094 41.992188c-4.425782 0-8-3.585938-8-8v-1.992188c0-4.414062 3.574218-8 8-8 4.425781 0 8 3.585938 8 8v1.992188c0 4.414062-3.574219 8-8 8zm0 0"/><path d="m192.496094 41.992188c-4.425782 0-8-3.585938-8-8v-1.992188c0-4.414062 3.574218-8 8-8 4.425781 0 8 3.585938 8 8v1.992188c0 4.414062-3.574219 8-8 8zm0 0"/><path d="m168.496094 471.992188c-39.695313 0-71.984375-32.289063-71.984375-71.984376 0-4.421874 3.578125-8 8-8 4.425781 0 8 3.578126 8 8 0 30.863282 25.121093 55.984376 55.984375 55.984376 30.863281 0 55.984375-25.121094 55.984375-55.984376 0-4.421874 3.574219-8 8-8 4.421875 0 8 3.578126 8 8 0 39.695313-32.289063 71.984376-71.984375 71.984376zm0 0"/><path d="m104.511719 408.007812c-4.421875 0-8-3.574218-8-8v-24c0-4.421874 3.578125-8 8-8 4.425781 0 8 3.578126 8 8v24c0 4.425782-3.574219 8-8 8zm0 0"/><path d="m232.496094 408.007812c-4.425782 0-8-3.574218-8-8v-24c0-4.421874 3.574218-8 8-8 4.425781 0 8 3.578126 8 8v24c0 4.425782-3.574219 8-8 8zm0 0"/><path d="m288.496094 303.992188c-4.425782 0-8-3.578126-8-8 0-4.425782 3.574218-8 8-8 17.648437 0 32-14.351563 32-32 0-17.648438-14.351563-32-32-32-4.425782 0-8-3.585938-8-8 0-4.417969 3.574218-8 8-8 26.472656 0 48 21.527343 48 48 0 26.472656-21.527344 48-48 48zm0 0"/><path d="m288.496094 303.992188h-104c-4.425782 0-8-3.578126-8-8 0-4.425782 3.574218-8 8-8h104c4.425781 0 8 3.574218 8 8 0 4.421874-3.574219 8-8 8zm0 0"/><path d="m288.496094 463.992188h-48c-4.425782 0-8-3.578126-8-8 0-4.425782 3.574218-8 8-8h48c4.425781 0 8 3.574218 8 8 0 4.421874-3.574219 8-8 8zm0 0"/><path d="m264.496094 463.992188c-4.425782 0-8-3.578126-8-8v-8c0-4.425782 3.574218-8 8-8 4.425781 0 8 3.574218 8 8v8c0 4.421874-3.574219 8-8 8zm0 0"/><path d="m240.496094 487.992188c-4.425782 0-8-3.578126-8-8v-24c0-4.425782 3.574218-8 8-8 4.425781 0 8 3.574218 8 8v24c0 4.421874-3.574219 8-8 8zm0 0"/><path d="m288.496094 487.992188c-4.425782 0-8-3.578126-8-8v-24c0-4.425782 3.574218-8 8-8 4.425781 0 8 3.574218 8 8v24c0 4.421874-3.574219 8-8 8zm0 0"/><path d="m288.496094 487.992188h-48c-4.425782 0-8-3.578126-8-8 0-4.425782 3.574218-8 8-8h48c4.425781 0 8 3.574218 8 8 0 4.421874-3.574219 8-8 8zm0 0"/></g></svg>