<?xml version="1.0" encoding="utf-8"?>
<!-- Generator: Adobe Illustrator 24.0.0, SVG Export Plug-In . SVG Version: 6.00 Build 0)  -->
<svg version="1.1" id="Capa_1" xmlns="http://www.w3.org/2000/svg" xmlns:xlink="http://www.w3.org/1999/xlink" x="0px" y="0px"
	 viewBox="0 0 512 512" style="enable-background:new 0 0 512 512;" xml:space="preserve">
<style type="text/css">
	.st0{fill:#FFFFFF;}
</style>
<g>
	<g>
		<path class="st0" d="M498.8,377.6L435.2,314c-17.5-17.5-46.1-17.5-63.6,0l-28.9,28.9c-13.3,13.3-34.9,13.3-48.2,0L169,217.4
			c-13.3-13.3-13.3-34.9,0-48.2c4.7-4.7,18-18,28.9-28.9c17.5-17.5,17.7-45.9,0-63.7l-63.6-63.4c-17.5-17.5-46.1-17.5-63.6,0
			c-13.1,13-17.3,17.2-23.2,23c-63.3,63.3-63.3,166.2,0,229.5l198.7,198.8c63.4,63.4,166.1,63.4,229.5,0l23.1-23.1
			C516.4,423.7,516.4,395.2,498.8,377.6z M91.8,34.4c5.8-5.8,15.4-5.9,21.2,0l63.6,63.4c5.9,5.9,5.9,15.4,0,21.2l-10.6,10.6
			L81.3,44.8L91.8,34.4z M267.4,443.2L68.7,244.4c-49-49-51.6-125.8-8.3-178L145,151c-22.2,25.2-21.3,63.6,2.8,87.7l125.4,125.5
			c0,0,0,0,0,0c24.1,24.1,62.4,25,87.7,2.8l84.6,84.6C393.4,494.8,316.7,492.5,267.4,443.2z M477.6,420.1L467,430.7l-84.9-84.9
			l10.6-10.6c5.9-5.8,15.4-5.9,21.2,0l63.6,63.6C483.5,404.7,483.5,414.2,477.6,420.1z"/>
	</g>
</g>
</svg>
