<svg id="e19yxzioym911" xmlns="http://www.w3.org/2000/svg" xmlns:xlink="http://www.w3.org/1999/xlink" viewBox="0 0 83 83" shape-rendering="geometricPrecision" text-rendering="geometricPrecision"><style><![CDATA[#e19yxzioym913_to {animation: e19yxzioym913_to__to 3200ms linear infinite normal forwards}@keyframes e19yxzioym913_to__to { 0% {transform: translate(0px,0px);animation-timing-function: cubic-bezier(0.470000,0,0.745000,0.715000)} 25% {transform: translate(3.397699px,-3.113325px);animation-timing-function: cubic-bezier(0.470000,0,0.745000,0.715000)} 50% {transform: translate(-0.002301px,-0.003325px);animation-timing-function: cubic-bezier(0.470000,0,0.745000,0.715000)} 75% {transform: translate(3.397699px,-3.113325px);animation-timing-function: cubic-bezier(0.470000,0,0.745000,0.715000)} 100% {transform: translate(-0.002301px,-0.003325px)} }]]></style><defs><linearGradient id="e19yxzioym912-fill" x1="-40.999999" y1="9.517800" x2="41.051900" y2="9.047500" spreadMethod="pad" gradientUnits="userSpaceOnUse"><stop id="e19yxzioym912-fill-0" offset="0%" stop-color="#5897fb"/><stop id="e19yxzioym912-fill-1" offset="100%" stop-color="#5897fb"/></linearGradient></defs><circle id="e19yxzioym912" r="41" transform="matrix(1 0 0 1 41.26190000000000 41.11330000000000)" fill="url(#e19yxzioym912-fill)" stroke="none" stroke-width="1"/><g id="e19yxzioym913_to" transform="translate(0,0)"><g id="e19yxzioym913" transform="translate(0,0)"><path id="e19yxzioym914" d="M45.395100,29.051800L23.763700,50.683200C23.020500,51.426400,22.602300,52.435200,22.602300,53.485700L22.602300,59.772500L28.889200,59.772500C29.939600,59.772500,30.948400,59.354300,31.691700,58.611100L53.323100,36.979700L45.395100,29.051800Z" fill="rgb(255,255,255)" stroke="none" stroke-width="1"/><path id="e19yxzioym915" d="M58.618900,23.755900C56.428800,21.565800,52.881100,21.565800,50.691000,23.755900L48.368100,26.078700L56.296000,34.006700L58.618900,31.683800C60.807000,29.495700,60.807000,25.945900,58.618900,23.755900Z" fill="rgb(255,255,255)" stroke="none" stroke-width="1"/></g></g><path id="e19yxzioym916" d="M29.479800,37.259400L26.225400,34.006900L32.512200,27.720100L35.764700,30.974500C36.539600,31.749400,37.794200,31.749400,38.567200,30.974500C39.342200,30.199500,39.342200,28.944900,38.567200,28.172000L35.314800,24.917500C33.766800,23.369600,31.257600,23.369600,29.709700,24.917500L23.422900,31.204400C21.874900,32.752300,21.874900,35.261500,23.422900,36.809500L26.675300,40.061900C27.450200,40.836900,28.704800,40.836900,29.477800,40.061900C30.252800,39.288900,30.252800,38.034300,29.479800,37.259400Z" fill="rgb(255,255,255)" fill-opacity="0.67" stroke="none" stroke-width="1"/><path id="e19yxzioym917" d="M51.400600,43.806000C50.625600,44.581000,50.625600,45.835600,51.400600,46.608600L54.655000,49.863000L48.368100,56.149900L45.115700,52.897400C44.340700,52.122500,43.086100,52.122500,42.313200,52.897400C41.538200,53.672400,41.538200,54.927000,42.313200,55.699900L45.565600,58.952400C47.113500,60.500300,49.622700,60.500300,51.170600,58.952400L57.457500,52.665500C59.005400,51.117600,59.005400,48.608400,57.457500,47.060500L54.205100,43.808000C53.430100,43.033100,52.175500,43.033100,51.400600,43.806000Z" fill="rgb(255,255,255)" fill-opacity="0.67" stroke="none" stroke-width="1"/></svg>