<?xml version="1.0" encoding="utf-8"?>
<!-- Generator: Adobe Illustrator 24.0.0, SVG Export Plug-In . SVG Version: 6.00 Build 0)  -->
<svg version="1.1" id="Layer_1" xmlns="http://www.w3.org/2000/svg" xmlns:xlink="http://www.w3.org/1999/xlink" x="0px" y="0px"
	 viewBox="0 0 415.9 415.8" style="enable-background:new 0 0 415.9 415.8;" xml:space="preserve">
<style type="text/css">
	.st0{fill:#0090ff;}
</style>
<g id="Shape">
	<g>
		<path class="st0" d="M333.2,41.9L41.9,333.2c1.3,1.8,2.7,3.5,4.1,5.2L338.4,45.9C336.7,44.5,334.9,43.2,333.2,41.9z M260,6.5
			L6.5,259.9c0.6,2.4,1.3,4.9,2,7.3L267.2,8.5C264.8,7.8,262.4,7.2,260,6.5z M311.4,27.5l-284,283.9c1.1,2,2.3,3.9,3.5,5.8
			L317.2,30.9C315.3,29.7,313.4,28.6,311.4,27.5z M287.1,15.6L15.6,287.1c0.9,2.2,1.8,4.3,2.8,6.5L293.6,18.4
			C291.5,17.4,289.3,16.4,287.1,15.6z M229.3,1L1,229.2c0.3,2.8,0.6,5.5,1,8.3L237.5,2.1C234.8,1.7,232,1.3,229.3,1z M355,60.9
			c-0.8-0.8-1.6-1.5-2.3-2.3L58.6,352.6c0.8,0.8,1.5,1.6,2.3,2.3c0.8,0.8,1.6,1.5,2.3,2.3L357.3,63.2
			C356.6,62.4,355.8,61.6,355,60.9z M193.7,0.4L0.4,193.7c-0.2,3.2-0.4,6.5-0.4,9.7L203.4,0C200.2,0.1,196.9,0.2,193.7,0.4z
			 M149.7,8.2L8.2,149.7C7,153.8,6,158,5,162.2L162.2,5C158,6,153.8,7,149.7,8.2z M212.5,415.8c3.2-0.1,6.5-0.2,9.7-0.4l193.2-193.2
			c0.2-3.2,0.4-6.5,0.4-9.7L212.5,415.8z M413.8,178.3L178.4,413.8c2.8,0.4,5.5,0.7,8.3,1l228.2-228.2
			C414.6,183.8,414.2,181.1,413.8,178.3z M60.9,60.9c-12.7,12.7-23.4,26.6-32.2,41.4l73.6-73.6C87.5,37.4,73.6,48.2,60.9,60.9z
			 M266.2,407.6l141.4-141.4c1.2-4.1,2.3-8.3,3.2-12.5L253.7,410.8C257.9,409.9,262.1,408.8,266.2,407.6z M355,355
			c12.7-12.7,23.4-26.6,32.2-41.4l-73.6,73.6C328.4,378.4,342.3,367.7,355,355z M385,98.7L98.7,384.9c1.9,1.2,3.9,2.3,5.8,3.5
			l284-283.9C387.3,102.5,386.2,100.6,385,98.7z M370,77.5L77.5,369.9c1.7,1.4,3.5,2.7,5.2,4.1L374,82.7
			C372.7,80.9,371.3,79.2,370,77.5z M407.4,148.6L148.7,407.3c2.4,0.7,4.8,1.4,7.3,2l253.4-253.4
			C408.7,153.5,408.1,151.1,407.4,148.6z M397.5,122.3L122.3,397.5c2.1,1,4.3,1.9,6.5,2.8l271.6-271.5
			C399.4,126.6,398.5,124.4,397.5,122.3z"/>
	</g>
</g>
</svg>
