<?xml version="1.0" encoding="utf-8"?>
<!-- Generator: Adobe Illustrator 24.0.0, SVG Export Plug-In . SVG Version: 6.00 Build 0)  -->
<svg version="1.1" id="Layer_1" xmlns="http://www.w3.org/2000/svg" xmlns:xlink="http://www.w3.org/1999/xlink" x="0px" y="0px"
	 viewBox="0 0 488.5 74.9" style="enable-background:new 0 0 488.5 74.9;" xml:space="preserve">
<style type="text/css">
	.st0{fill:#0090ff;}
</style>
<g>
	<path class="st0" d="M476,74.9c-23.3,0-34.5-16.9-43.5-30.6C423.5,30.9,418.6,25,409.7,25c-8.9,0-13.8,5.9-22.7,19.4
		c-9,13.6-20.3,30.6-43.5,30.6c-23.3,0-34.5-17-43.5-30.6C291,30.9,286.2,25,277.3,25c-8.9,0-13.8,5.9-22.7,19.4
		c-9,13.6-20.3,30.6-43.5,30.6c-23.3,0-34.5-17-43.5-30.6C158.6,30.9,153.8,25,144.8,25c-8.9,0-13.7,5.9-22.7,19.4
		c-9,13.6-20.2,30.6-43.5,30.6c-23.2,0-34.5-17-43.5-30.6C26.2,30.9,21.4,25,12.5,25C5.6,25,0,19.4,0,12.5S5.6,0,12.5,0
		C35.7,0,47,17,56,30.6C64.9,44.1,69.8,50,78.7,50c8.9,0,13.8-5.9,22.7-19.4C110.4,17,121.6,0,144.8,0c23.3,0,34.5,17,43.5,30.6
		C197.3,44,202.1,50,211.1,50c8.9,0,13.8-5.9,22.7-19.4C242.8,17,254,0,277.3,0c23.3,0,34.5,17,43.5,30.6
		C329.7,44,334.6,50,343.5,50c8.9,0,13.8-5.9,22.7-19.4c9-13.6,20.3-30.6,43.5-30.6c23.3,0,34.5,16.9,43.5,30.6
		C462.2,44,467,50,476,50c6.9,0,12.5,5.6,12.5,12.5S482.9,74.9,476,74.9z"/>
</g>
</svg>
