<?xml version="1.0" encoding="utf-8"?>
<!-- Generator: Adobe Illustrator 24.0.0, SVG Export Plug-In . SVG Version: 6.00 Build 0)  -->
<svg version="1.1" id="Layer_1" xmlns="http://www.w3.org/2000/svg" xmlns:xlink="http://www.w3.org/1999/xlink" x="0px" y="0px"
	 viewBox="0 0 343.6 388.4" style="enable-background:new 0 0 343.6 388.4;" xml:space="preserve">
<style type="text/css">
	.st0{fill:#0090ff;}
</style>
<g>
	<path class="st0" d="M0,329.1V59.2C0,37.7,11.2,18.4,30,7.8C48.7-2.8,71-2.6,89.5,8.5l225.3,135c18,10.8,28.7,29.7,28.7,50.7
		c0,21-10.7,39.9-28.7,50.7l-225.3,135C71,390.9,48.7,391.2,30,380.6C11.2,369.9,0,350.7,0,329.1z M304.1,161.4L78.7,26.5
		c-12-7.2-26.3-7.3-38.5-0.5c-12.1,6.9-19.4,19.3-19.4,33.2v269.9c0,13.9,7.2,26.4,19.4,33.2c12.1,6.9,26.5,6.7,38.5-0.5l225.3-135
		c11.6-7,18.6-19.2,18.6-32.8C322.7,180.6,315.7,168.4,304.1,161.4L304.1,161.4z"/>
</g>
</svg>
